<svg width="510" height="510" viewBox="0 0 510 510" fill="none" xmlns="http://www.w3.org/2000/svg">
<path d="M101.083 186.667V460H408.583V186.667H101.083ZM186.5 391.667C186.5 401.097 178.847 408.75 169.417 408.75C159.987 408.75 152.333 401.097 152.333 391.667V255C152.333 245.57 159.987 237.917 169.417 237.917C178.847 237.917 186.5 245.57 186.5 255V391.667ZM271.917 391.667C271.917 401.097 264.263 408.75 254.833 408.75C245.403 408.75 237.75 401.097 237.75 391.667V255C237.75 245.57 245.403 237.917 254.833 237.917C264.263 237.917 271.917 245.57 271.917 255V391.667ZM357.333 391.667C357.333 401.097 349.68 408.75 340.25 408.75C330.82 408.75 323.167 401.097 323.167 391.667V255C323.167 245.57 330.82 237.917 340.25 237.917C349.68 237.917 357.333 245.57 357.333 255V391.667ZM425.667 129.01L418.68 162.46L84 92.435L90.9871 58.9858L185.424 77.7604C200.474 80.9208 216.515 65.0846 219.659 50L308.56 68.5525C305.417 83.62 313.805 104.547 328.873 107.69L425.667 129.01Z" fill="#FF1C1C"/>
</svg>
